<?xml version="1.0" encoding="UTF-8" standalone="no"?>
<svg
   xmlns:dc="http://purl.org/dc/elements/1.1/"
   xmlns:cc="http://creativecommons.org/ns#"
   xmlns:rdf="http://www.w3.org/1999/02/22-rdf-syntax-ns#"
   xmlns:svg="http://www.w3.org/2000/svg"
   xmlns="http://www.w3.org/2000/svg"
   xmlns:sodipodi="http://sodipodi.sourceforge.net/DTD/sodipodi-0.dtd"
   xmlns:inkscape="http://www.inkscape.org/namespaces/inkscape"
   version="1.0"
   width="1312.000000pt"
   height="2100.000000pt"
   viewBox="0 0 1312.000000 2100.000000"
   preserveAspectRatio="xMidYMid meet"
   id="svg198"
   sodipodi:docname="bbt.svg"
   inkscape:version="0.92.4 (5da689c313, 2019-01-14)">
  <metadata
     id="metadata204">
    <rdf:RDF>
      <cc:Work
         rdf:about="">
        <dc:format>image/svg+xml</dc:format>
        <dc:type
           rdf:resource="http://purl.org/dc/dcmitype/StillImage" />
      </cc:Work>
    </rdf:RDF>
  </metadata>
  <defs
     id="defs202" />
  <sodipodi:namedview
     pagecolor="#ffffff"
     bordercolor="#666666"
     borderopacity="1"
     objecttolerance="10"
     gridtolerance="10"
     guidetolerance="10"
     inkscape:pageopacity="0"
     inkscape:pageshadow="2"
     inkscape:window-width="1812"
     inkscape:window-height="853"
     id="namedview200"
     showgrid="false"
     inkscape:zoom="0.24428571"
     inkscape:cx="782.96555"
     inkscape:cy="1157.8749"
     inkscape:window-x="-8"
     inkscape:window-y="-8"
     inkscape:window-maximized="1"
     inkscape:current-layer="g196" />
  <g
     transform="translate(0.000000,2100.000000) scale(0.100000,-0.100000)"
     fill="#000000"
     stroke="none"
     id="g196">
    <path
       d="M6940 20769 c-1222 -107 -2191 -694 -2895 -1754 -647 -974 -1059 -2406 -1189 -4135 -33 -427 -40 -653 -41 -1200 0 -721 17 -980 75 -1133 65 -171 219 -304 407 -352 55 -14 281 -15 2205 -12 2297 3 2224 2 2553 53 867 135 1516 525 1953 1176 354 526 445 1251 241 1909 -140 451 -424 857 -810 1156 -33 26 -59 47 -59 48 0 1 67 69 148 151 250 252 405 506 517 849 130 395 155 771 78 1170 -117 611 -536 1236 -1058 1582 -498 330 -1057 488 -1765 498 -140 2 -302 -1 -360 -6z m725 -1194 c407 -73 702 -212 933 -439 176 -172 294 -374 354 -601 28 -110 31 -134 32 -285 0 -155 -1 -172 -31 -281 -84 -309 -275 -539 -583 -698 -154 -80 -449 -155 -645 -165 -60 -3 -155 -8 -210 -11 -154 -7 -266 -48 -377 -139 -68 -55 -147 -170 -178 -257 -27 -78 -37 -220 -21 -304 30 -167 164 -339 322 -415 99 -47 150 -55 414 -70 409 -21 754 -138 1025 -346 86 -65 233 -222 283 -301 140 -218 197 -407 197 -646 0 -207 -40 -354 -146 -544 -67 -119 -241 -299 -368 -382 -230 -149 -509 -249 -839 -301 -155 -24 -546 -30 -2151 -30 l-1689 0 6 483 c14 1025 89 1752 262 2532 192 861 447 1500 823 2061 189 283 484 582 737 747 143 93 344 199 459 242 203 75 505 146 696 164 156 14 585 6 695 -14z"
       id="path108"
       style="fill:#df871b;fill-opacity:1" />
    <path
       d="M12043 11345 c-263 -48 -403 -172 -434 -385 -9 -62 -8 -87 6 -145 21 -91 77 -204 131 -264 23 -26 147 -122 276 -214 470 -336 507 -370 515 -464 7 -85 -47 -137 -157 -150 l-50 -6 0 -165 0 -165 91 6 c358 26 549 192 549 478 0 209 -86 332 -370 526 -603 413 -564 380 -561 481 3 93 36 132 131 154 l50 11 0 159 0 158 -52 -1 c-29 0 -85 -7 -125 -14z"
       id="path110"
       style="fill:#df871b;fill-opacity:1" />
    <path
       d="M12330 11201 c0 -137 2 -161 15 -161 34 0 107 -45 131 -79 13 -20 30 -62 36 -93 l12 -58 187 0 c102 0 201 3 219 6 l32 7 -6 67 c-28 276 -215 437 -544 465 l-82 8 0 -162z"
       id="path112"
       style="fill:#df871b;fill-opacity:1" />
    <path
       d="M300 10380 l0 -950 220 0 220 0 0 950 0 950 -220 0 -220 0 0 -950z"
       id="path114"
       style="fill:#df871b;fill-opacity:1" />
    <path
       d="M820 11171 l0 -161 105 0 c67 0 117 -5 138 -14 71 -30 109 -102 108 -208 0 -84 -14 -133 -50 -172 -41 -45 -79 -56 -196 -56 l-105 0 0 -160 0 -160 104 0 c155 0 212 -26 253 -117 23 -49 25 -65 21 -153 -3 -86 -7 -102 -32 -140 -41 -62 -93 -82 -233 -88 l-113 -5 0 -155 0 -154 188 5 c145 3 204 9 263 25 206 55 330 174 368 350 15 73 14 213 -4 295 -17 83 -66 177 -114 219 -19 17 -60 42 -90 56 l-54 25 51 19 c69 26 133 97 162 181 30 87 38 266 16 361 -42 177 -160 285 -369 337 -59 15 -130 22 -249 26 l-168 6 0 -162z"
       id="path116"
       style="fill:#df871b;fill-opacity:1" />
    <path
       d="M1870 10380 l0 -950 218 2 217 3 3 948 2 947 -220 0 -220 0 0 -950z"
       id="path118"
       style="fill:#df871b;fill-opacity:1" />
    <path
       d="M2390 11170 l0 -160 103 0 c151 -1 208 -33 236 -135 14 -52 14 -143 -1 -186 -33 -99 -87 -128 -235 -129 l-103 0 0 -160 0 -160 98 0 c142 -1 203 -34 233 -129 7 -21 14 -160 18 -341 4 -168 11 -313 15 -322 7 -16 28 -18 231 -18 l223 0 -14 47 c-10 35 -14 114 -14 317 0 290 -9 366 -51 454 -29 60 -89 117 -146 138 l-45 18 47 13 c66 20 135 91 164 169 70 184 44 424 -59 553 -97 123 -303 191 -582 191 l-118 0 0 -160z"
       id="path120"
       style="fill:#df871b;fill-opacity:1" />
    <path
       d="M3430 10380 l0 -950 225 0 225 0 0 950 0 950 -225 0 -225 0 0 -950z"
       id="path122"
       style="fill:#df871b;fill-opacity:1" />
    <path
       d="M3940 11170 l0 -160 285 0 285 0 0 160 0 160 -285 0 -285 0 0 -160z"
       id="path124"
       style="fill:#df871b;fill-opacity:1" />
    <path
       d="M4700 10380 l0 -950 205 0 205 0 0 950 0 950 -205 0 -205 0 0 -950z"
       id="path126"
       style="fill:#df871b;fill-opacity:1" />
    <path
       d="M5690 10380 l0 -950 205 0 205 0 0 950 0 950 -205 0 -205 0 0 -950z"
       id="path128"
       style="fill:#df871b;fill-opacity:1" />
    <path
       d="M6340 10380 l0 -950 220 0 220 0 0 950 0 950 -220 0 -220 0 0 -950z"
       id="path130"
       style="fill:#df871b;fill-opacity:1" />
    <path
       d="M6840 11173 l0 -160 123 -5 c67 -3 136 -11 152 -17 44 -18 94 -70 105 -111 6 -21 10 -231 10 -516 0 -526 -1 -532 -57 -572 -47 -32 -63 -35 -198 -41 l-130 -6 -3 -157 -3 -158 176 0 c205 0 295 14 403 65 88 42 165 116 205 198 55 113 59 165 55 729 -4 497 -4 515 -26 578 -41 123 -116 210 -226 261 -111 51 -165 61 -383 66 l-203 6 0 -160z"
       id="path132"
       style="fill:#df871b;fill-opacity:1" />
    <path
       d="M8217 11323 c-3 -5 -82 -312 -177 -683 -94 -371 -203 -795 -240 -942 l-68 -268 217 0 216 0 165 734 c90 404 167 733 171 730 3 -2 9 -23 13 -46 7 -45 124 -647 133 -685 5 -23 5 -23 -121 -23 -122 0 -126 -1 -131 -22 -20 -85 -55 -260 -55 -273 0 -13 26 -15 185 -15 l184 0 10 -37 c11 -43 66 -281 76 -330 l7 -33 228 0 228 0 -164 648 c-90 356 -199 783 -240 950 l-76 302 -279 0 c-153 0 -280 -3 -282 -7z"
       id="path134"
       style="fill:#df871b;fill-opacity:1" />
    <path
       d="M9390 10380 l0 -950 205 0 205 0 0 950 0 950 -205 0 -205 0 0 -950z"
       id="path136"
       style="fill:#df871b;fill-opacity:1" />
    <path
       d="M10380 10380 l0 -950 205 0 205 0 0 950 0 950 -205 0 -205 0 0 -950z"
       id="path138"
       style="fill:#df871b;fill-opacity:1" />
    <path
       d="M11325 11265 c-5 -2 -45 -6 -87 -10 -75 -6 -78 -8 -78 -32 0 -57 -106 -484 -146 -587 -7 -18 -3 -18 62 -11 38 4 75 12 82 17 14 12 81 149 124 258 26 64 128 356 128 367 0 4 -72 3 -85 -2z"
       id="path140"
       style="fill:#df871b;fill-opacity:1" />
    <path
       d="M5161 10849 l-1 -326 156 -319 c86 -176 192 -391 235 -479 l78 -160 0 326 1 327 -143 293 c-79 162 -184 377 -234 479 l-91 185 -1 -326z"
       id="path142"
       style="fill:#df871b;fill-opacity:1" />
    <path
       d="M9850 10852 l0 -322 238 -486 237 -486 3 321 2 320 -74 153 c-277 574 -389 804 -397 813 -5 5 -9 -121 -9 -313z"
       id="path144"
       style="fill:#df871b;fill-opacity:1" />
    <path
       d="M3940 10420 l0 -160 270 0 270 0 0 160 0 160 -270 0 -270 0 0 -160z"
       id="path146"
       style="fill:#df871b;fill-opacity:1" />
    <path
       d="M11563 9914 c13 -150 56 -253 145 -342 99 -100 252 -163 433 -178 l79 -7 0 167 c0 154 -1 166 -18 166 -45 0 -113 34 -151 75 -39 42 -71 120 -71 172 l0 23 -211 0 -212 0 6 -76z"
       id="path148"
       style="fill:#df871b;fill-opacity:1" />
    <path
       d="M3940 9595 l0 -165 285 0 285 0 0 165 0 165 -285 0 -285 0 0 -165z"
       id="path150"
       style="fill:#df871b;fill-opacity:1" />
    <path
       d="M310 7020 l0 -1880 430 0 430 0 0 1880 0 1880 -430 0 -430 0 0 -1880z"
       id="path152"
       style="fill:#514f50;fill-opacity:1" />
    <path
       d="M1330 8587 l0 -317 138 0 c164 0 292 -14 348 -39 134 -60 204 -201 204 -413 0 -216 -61 -339 -203 -404 -61 -29 -65 -29 -274 -32 l-213 -3 0 -319 0 -318 223 -4 c260 -5 298 -14 392 -99 92 -85 134 -208 135 -390 0 -274 -96 -420 -309 -465 -43 -9 -131 -14 -253 -14 l-188 0 0 -316 0 -316 308 5 c249 4 330 9 427 26 159 27 280 63 392 116 111 52 169 91 247 164 115 110 186 234 233 407 25 92 27 114 27 304 0 161 -3 223 -18 288 -69 322 -212 504 -470 598 l-59 21 49 12 c135 34 282 155 342 283 77 161 97 273 97 528 -1 166 -4 208 -23 282 -65 261 -204 440 -432 557 -234 120 -423 157 -857 168 l-263 6 0 -316z"
       id="path154"
       style="fill:#514f50;fill-opacity:1" />
    <path
       d="M3370 7020 l0 -1880 435 0 435 0 0 1880 0 1880 -435 0 -435 0 0 -1880z"
       id="path156"
       style="fill:#514f50;fill-opacity:1" />
    <path
       d="M4390 8586 l0 -316 138 0 c274 0 367 -24 451 -116 60 -65 87 -132 101 -253 26 -207 -34 -385 -155 -464 -73 -47 -130 -57 -342 -57 l-193 0 0 -319 0 -320 213 -3 c212 -3 212 -3 270 -32 97 -50 156 -133 187 -266 10 -39 15 -212 20 -610 7 -547 9 -578 42 -662 l10 -28 442 0 442 0 -25 73 -25 72 -7 580 c-5 469 -9 594 -22 651 -63 290 -182 450 -390 526 l-59 21 73 26 c195 69 309 207 376 456 25 94 26 114 27 325 1 205 -1 233 -22 315 -102 394 -401 619 -916 691 -61 8 -229 18 -373 21 l-263 6 0 -317z"
       id="path158"
       style="fill:#514f50;fill-opacity:1" />
    <path
       d="M6430 7020 l0 -1880 435 0 435 0 0 1880 0 1880 -435 0 -435 0 0 -1880z"
       id="path160"
       style="fill:#514f50;fill-opacity:1" />
    <path
       d="M7430 8585 l0 -315 565 0 565 0 0 315 0 315 -565 0 -565 0 0 -315z"
       id="path162"
       style="fill:#514f50;fill-opacity:1" />
    <path
       d="M8704 8883 c3 -10 82 -333 176 -718 93 -385 296 -1217 450 -1849 154 -632 280 -1155 280 -1162 0 -12 58 -14 320 -14 l320 0 -5 23 c-3 12 -80 418 -171 902 -395 2106 -524 2791 -529 2813 l-5 22 -421 0 c-396 0 -420 -1 -415 -17z"
       id="path164"
       style="fill:#514f50;fill-opacity:1" />
    <path
       d="M10461 8753 c-18 -82 -114 -508 -213 -948 l-180 -800 61 -325 c140 -743 230 -1212 233 -1216 2 -2 114 499 248 1114 134 614 246 1122 249 1129 6 12 62 -250 412 -1932 72 -346 132 -631 133 -633 2 -1 154 -1 338 0 l335 3 -24 105 c-13 58 -82 359 -153 670 -71 311 -251 1101 -400 1755 -149 655 -273 1198 -276 1208 -5 16 -31 17 -368 17 l-362 0 -33 -147z"
       id="path166"
       style="fill:#514f50;fill-opacity:1" />
    <path
       d="M12163 8788 c-12 -62 -69 -360 -128 -663 -58 -302 -130 -674 -159 -825 l-53 -275 174 -745 c95 -409 175 -746 178 -748 5 -6 -20 -105 430 1703 223 897 408 1638 411 1648 5 16 -19 17 -414 17 l-418 0 -21 -112z"
       id="path168"
       style="fill:#514f50;fill-opacity:1" />
    <path
       d="M7430 7095 l0 -315 530 0 530 0 0 315 0 315 -530 0 -530 0 0 -315z"
       id="path170"
       style="fill:#514f50;fill-opacity:1" />
    <path
       d="M7430 5465 l0 -325 565 0 565 0 0 325 0 325 -565 0 -565 0 0 -325z"
       id="path172"
       style="fill:#514f50;fill-opacity:1" />
    <path
       d="M5790 4350 c0 -170 3 -310 8 -310 4 0 37 -7 73 -14 120 -26 207 -84 249 -167 51 -98 50 -82 50 -1161 0 -1058 0 -1070 -45 -1158 -51 -100 -152 -165 -288 -184 l-48 -7 3 -427 c3 -408 4 -429 24 -484 44 -114 103 -175 215 -221 53 -21 66 -22 532 -25 l477 -3 0 281 0 280 -440 0 c-372 0 -440 2 -440 14 0 9 16 17 43 21 62 10 265 78 328 110 311 156 488 427 529 807 6 60 10 454 10 1035 0 1000 -3 1054 -50 1223 -26 90 -87 216 -139 285 -148 195 -369 318 -669 375 -118 22 -285 40 -368 40 l-54 0 0 -310z"
       id="path174"
       style="fill:#514f50;fill-opacity:1" />
    <path
       d="M5450 4643 c-261 -28 -498 -103 -663 -209 -189 -122 -312 -305 -370 -547 -22 -92 -22 -96 -22 -1147 0 -977 1 -1062 18 -1144 108 -529 469 -799 1140 -852 l87 -6 0 305 0 305 -72 16 c-130 29 -206 86 -257 196 l-26 55 -3 1054 c-3 1164 -5 1115 60 1211 54 82 124 122 271 154 l27 6 0 305 0 305 -77 -2 c-43 0 -94 -3 -113 -5z"
       id="path176"
       style="fill:#514f50;fill-opacity:1" />
    <path
       d="M160 4255 l0 -315 1335 0 1335 0 0 315 0 315 -1335 0 -1335 0 0 -315z"
       id="path178"
       style="fill:#514f50;fill-opacity:1" />
    <path
       d="M3140 2695 l0 -1875 445 0 445 0 0 1875 0 1875 -445 0 -445 0 0 -1875z"
       id="path180"
       style="fill:#514f50;fill-opacity:1" />
    <path
       d="M7450 3190 c0 -939 4 -1412 11 -1482 39 -358 199 -624 470 -780 185 -107 443 -174 694 -181 l80 -2 3 301 2 301 -77 16 c-137 30 -224 99 -270 217 -17 42 -18 132 -21 1518 l-2 1472 -445 0 -445 0 0 -1380z"
       id="path182"
       style="fill:#514f50;fill-opacity:1" />
    <path
       d="M9230 3138 c0 -1533 0 -1509 -49 -1607 -46 -89 -139 -150 -264 -171 l-67 -12 0 -304 0 -304 34 0 c19 0 80 5 137 10 646 64 988 336 1086 864 16 82 18 233 20 1524 l4 1432 -451 0 -450 0 0 -1432z"
       id="path184"
       style="fill:#514f50;fill-opacity:1" />
    <path
       d="M10520 2695 l0 -1875 440 0 440 0 0 1875 0 1875 -440 0 -440 0 0 -1875z"
       id="path186"
       style="fill:#514f50;fill-opacity:1" />
    <path
       d="M11520 4255 l0 -315 568 2 567 3 3 313 2 312 -570 0 -570 0 0 -315z"
       id="path188"
       style="fill:#514f50;fill-opacity:1" />
    <path
       d="M1060 2305 l0 -1485 435 0 435 0 0 1485 0 1485 -435 0 -435 0 0 -1485z"
       id="path190"
       style="fill:#514f50;fill-opacity:1" />
    <path
       d="M11520 2775 l0 -315 535 0 535 0 0 315 0 315 -535 0 -535 0 0 -315z"
       id="path192"
       style="fill:#514f50;fill-opacity:1" />
    <path
       d="M11520 1145 l0 -325 570 0 570 0 -2 323 -3 322 -567 3 -568 2 0 -325z"
       id="path194"
       style="fill:#514f50;fill-opacity:1" />
  </g>
</svg>
